#tb 0: 1/50
0,         18,         18,        1,   622080, 0x6331caee
0,         19,         19,        1,   622080, 0x625da883
0,         20,         20,        1,   622080, 0xa459e690
0,         21,         21,        1,   622080, 0xce5d891e
0,         22,         22,        1,   622080, 0x6429c648
0,         23,         23,        1,   622080, 0x608cc0ba
0,         24,         24,        1,   622080, 0xa49891ca
0,         25,         25,        1,   622080, 0x9721987f
0,         26,         26,        1,   622080, 0x2a887404
0,         27,         27,        1,   622080, 0x60d71d47
0,         28,         28,        1,   622080, 0xe8d49705
0,         29,         29,        1,   622080, 0x821e13cb
0,         30,         30,        1,   622080, 0x1b627835
0,         31,         31,        1,   622080, 0x1806c5f4
0,         32,         32,        1,   622080, 0x686858fd
0,         33,         33,        1,   622080, 0xab865773
0,         34,         34,        1,   622080, 0x2675174f
0,         35,         35,        1,   622080, 0x43a61a14
0,         36,         36,        1,   622080, 0x78470e7f
0,         37,         37,        1,   622080, 0xeb877bc6
0,         38,         38,        1,   622080, 0xffb366ec
0,         39,         39,        1,   622080, 0xda0906e7
0,         40,         40,        1,   622080, 0xd575da72
0,         41,         41,        1,   622080, 0x23ae25a4
0,         42,         42,        1,   622080, 0x5fb297f7
0,         43,         43,        1,   622080, 0x99b32978
0,         44,         44,        1,   622080, 0xbac77ca0
0,         45,         45,        1,   622080, 0xc1cdcbf9
0,         46,         46,        1,   622080, 0x3276ed72
0,         47,         47,        1,   622080, 0x4061f5ab
0,         48,         48,        1,   622080, 0x264092b2
0,         49,         49,        1,   622080, 0xa4e2039e
0,         50,         50,        1,   622080, 0x20ba1094
0,         51,         51,        1,   622080, 0x984e906e
0,         52,         52,        1,   622080, 0x76cc3139
0,         53,         53,        1,   622080, 0xf70e2cf6
0,         54,         54,        1,   622080, 0x469a4902
0,         55,         55,        1,   622080, 0x235312e6
0,         56,         56,        1,   622080, 0x0ed7b8f5
0,         57,         57,        1,   622080, 0xd0269cc3
0,         58,         58,        1,   622080, 0xdc51aeac
0,         59,         59,        1,   622080, 0x1aa5f76e
0,         60,         60,        1,   622080, 0xee06aa36
0,         61,         61,        1,   622080, 0xa7103230
0,         62,         62,        1,   622080, 0x7372405f
0,         63,         63,        1,   622080, 0x8d7a44b5
0,         64,         64,        1,   622080, 0x9e0ee776
0,         65,         65,        1,   622080, 0xd41e8560
0,         66,         66,        1,   622080, 0x39e6d8c9
0,         67,         67,        1,   622080, 0x7a23d70c
0,         68,         68,        1,   622080, 0x51d9ac9a
0,         69,         69,        1,   622080, 0x8eacf7f2
0,         70,         70,        1,   622080, 0x2b63441d
0,         71,         71,        1,   622080, 0x9f71b742
0,         72,         72,        1,   622080, 0x58afbd5e
0,         73,         73,        1,   622080, 0x4d645292
0,         74,         74,        1,   622080, 0xb972f716
0,         75,         75,        1,   622080, 0xbb5d01a2
0,         76,         76,        1,   622080, 0x6a6df129
0,         77,         77,        1,   622080, 0x9e45371e
0,         78,         78,        1,   622080, 0x28b1373d
0,         79,         79,        1,   622080, 0xa1cdb1f2
